<?xml version="1.0" standalone="no"?>
<!DOCTYPE svg PUBLIC "-//W3C//DTD SVG 20010904//EN"
 "http://www.w3.org/TR/2001/REC-SVG-20010904/DTD/svg10.dtd">
<svg version="1.0" xmlns="http://www.w3.org/2000/svg"
 width="512.000000pt" height="512.000000pt" viewBox="0 0 512.000000 512.000000"
 preserveAspectRatio="xMidYMid meet">
<metadata>
Created by potrace 1.16, written by Peter Selinger 2001-2019
</metadata>
<g transform="translate(0.000000,512.000000) scale(0.100000,-0.100000)"
fill="#000000" stroke="none">
<path d="M0 2560 l0 -2560 2560 0 2560 0 0 2560 0 2560 -2560 0 -2560 0 0
-2560z m2940 2486 c383 -65 702 -189 1005 -391 152 -101 261 -190 390 -319
386 -386 619 -845 712 -1401 14 -88 18 -163 18 -380 -1 -236 -4 -287 -24 -404
-41 -239 -121 -493 -215 -679 -20 -39 -36 -79 -36 -89 -1 -10 30 -248 67 -529
l67 -511 -25 -49 c-19 -39 -34 -54 -73 -73 l-49 -25 -511 68 c-281 37 -519 67
-529 66 -10 0 -49 -16 -87 -35 -186 -93 -426 -171 -660 -212 -178 -31 -503
-42 -682 -24 -754 79 -1424 484 -1843 1116 -202 303 -326 624 -391 1005 -25
147 -30 503 -10 674 51 443 220 863 497 1233 94 126 346 378 472 472 375 280
780 443 1247 500 117 15 548 6 660 -13z"/>
<path d="M2370 3304 c-420 -40 -774 -162 -1008 -350 -144 -115 -234 -250 -268
-400 -73 -329 225 -669 732 -834 249 -81 442 -110 734 -110 287 0 500 31 728
107 504 167 798 492 742 822 -61 361 -505 655 -1125 747 -98 14 -447 26 -535
18z m-348 -647 c66 -33 142 -110 170 -175 29 -64 36 -168 14 -210 -20 -38 -62
-62 -111 -62 -26 0 -45 9 -71 33 -30 27 -36 41 -43 91 -7 49 -14 65 -40 88
-62 55 -141 30 -180 -57 -54 -122 -231 -87 -231 46 0 61 68 167 143 221 90 64
245 76 349 25z m1370 5 c95 -42 183 -150 195 -241 18 -137 -172 -183 -228 -56
-39 87 -118 112 -180 57 -26 -23 -33 -39 -40 -88 -7 -50 -13 -64 -43 -91 -40
-37 -87 -43 -136 -18 -46 24 -63 67 -58 145 6 81 34 145 88 204 81 88 154 117
275 113 54 -2 95 -10 127 -25z"/>
</g>
</svg>
